<svg width="512" height="512" viewBox="0 0 512 512" xmlns="http://www.w3.org/2000/svg" role="img" aria-label="Asvix tree logo">
  <defs>
    <radialGradient id="bg" cx="50%" cy="36%" r="68%">
      <stop offset="0%" stop-color="#1B5E20"/>
      <stop offset="100%" stop-color="#0B3B1D"/>
    </radialGradient>
    <linearGradient id="leaf" x1="0" y1="0" x2="1" y2="1">
      <stop offset="0%" stop-color="#DCE775"/>
      <stop offset="100%" stop-color="#7CB342"/>
    </linearGradient>
    <linearGradient id="trunk" x1="0" y1="0" x2="0" y2="1">
      <stop offset="0%" stop-color="#FBC02D"/>
      <stop offset="100%" stop-color="#BF7A1D"/>
    </linearGradient>
  </defs>

  <circle cx="256" cy="256" r="248" fill="url(#bg)"/>

  <path d="M50 360 C120 300, 170 300, 230 320 C290 340, 340 330, 462 300 L462 420 L50 420 Z" fill="#234F1E" opacity="0.9"/>
  <path d="M70 370 C155 320, 215 330, 315 350 C370 362, 410 356, 450 340" stroke="#8DA45E" stroke-width="18" opacity="0.6" fill="none"/>

  <path d="M238 378 C235 320, 232 280, 242 235 C252 190, 272 158, 278 120 C297 141, 308 178, 308 210 C308 242, 298 276, 297 318 C296 348, 301 378, 295 402 C284 396, 273 389, 267 382 C261 392, 251 401, 238 406 C236 396, 239 386, 238 378 Z" fill="url(#trunk)"/>

  <g stroke="#D9A73A" stroke-linecap="round" fill="none" opacity="0.95">
    <path d="M264 250 C220 228, 198 214, 174 188" stroke-width="8"/>
    <path d="M271 236 C232 210, 210 184, 198 160" stroke-width="7"/>
    <path d="M280 245 C322 218, 350 201, 373 176" stroke-width="8"/>
    <path d="M285 226 C321 200, 338 177, 349 157" stroke-width="7"/>
    <path d="M257 286 C218 284, 188 272, 154 252" stroke-width="7"/>
    <path d="M286 287 C326 286, 357 273, 390 252" stroke-width="7"/>
  </g>

  <g fill="url(#leaf)">
    <circle cx="256" cy="130" r="30"/>
    <circle cx="220" cy="145" r="27"/>
    <circle cx="294" cy="145" r="27"/>
    <circle cx="188" cy="170" r="28"/>
    <circle cx="324" cy="168" r="28"/>
    <circle cx="160" cy="196" r="30"/>
    <circle cx="352" cy="196" r="30"/>
    <circle cx="138" cy="230" r="28"/>
    <circle cx="376" cy="230" r="28"/>
    <circle cx="126" cy="270" r="25"/>
    <circle cx="388" cy="270" r="25"/>
    <circle cx="165" cy="286" r="26"/>
    <circle cx="347" cy="286" r="26"/>
    <circle cx="210" cy="300" r="24"/>
    <circle cx="302" cy="300" r="24"/>
    <circle cx="255" cy="300" r="26"/>
  </g>

  <circle cx="256" cy="256" r="248" fill="none" stroke="#0B3B1D" stroke-width="12"/>
</svg>
